<?xml version="1.0" encoding="UTF-8"?>
<!DOCTYPE svg PUBLIC "-//W3C//DTD SVG 1.1//EN" "http://www.w3.org/Graphics/SVG/1.1/DTD/svg11.dtd">
<svg xmlns="http://www.w3.org/2000/svg" version="1.1" width="512px" height="487px" style="shape-rendering:geometricPrecision; text-rendering:geometricPrecision; image-rendering:optimizeQuality; fill-rule:evenodd; clip-rule:evenodd" xmlns:xlink="http://www.w3.org/1999/xlink">
<g><path style="opacity:1" fill="#edeae6" d="M 303.5,103.5 C 304.791,103.263 305.791,103.596 306.5,104.5C 303.903,104.721 303.903,105.221 306.5,106C 314.681,107.213 322.681,109.046 330.5,111.5C 328.49,112.693 326.324,112.693 324,111.5C 320.875,112.196 317.875,113.196 315,114.5C 312.895,113.689 310.895,112.689 309,111.5C 306.675,112.184 304.342,111.851 302,110.5C 300.933,111.191 299.766,111.691 298.5,112C 298.833,112.333 299.167,112.667 299.5,113C 297.527,113.495 295.527,113.662 293.5,113.5C 291.981,112.622 291.147,111.622 291,110.5C 281.391,112.691 272.225,116.025 263.5,120.5C 262.375,119.986 261.209,119.653 260,119.5C 259.383,118.551 259.549,117.718 260.5,117C 259.619,116.292 258.953,115.458 258.5,114.5C 261.571,113.026 264.571,111.359 267.5,109.5C 256.007,108.176 244.674,108.176 233.5,109.5C 229.131,109.467 224.798,109.8 220.5,110.5C 218.801,110.66 217.134,110.494 215.5,110C 216.902,108.658 216.569,107.824 214.5,107.5C 212.448,108.512 210.281,109.179 208,109.5C 203.309,109.151 198.809,108.484 194.5,107.5C 229.239,99.486 264.239,98.486 299.5,104.5C 301.045,104.489 302.378,104.156 303.5,103.5 Z"/></g>
<g><path style="opacity:0.509" fill="#87837f" d="M 233.5,109.5 C 244.674,108.176 256.007,108.176 267.5,109.5C 264.571,111.359 261.571,113.026 258.5,114.5C 257.609,115.11 256.609,115.443 255.5,115.5C 257.147,113.674 259.147,112.34 261.5,111.5C 262.043,111.44 262.376,111.107 262.5,110.5C 252.856,109.502 243.19,109.168 233.5,109.5 Z"/></g>
<g><path style="opacity:0.1" fill="#3b3231" d="M 233.5,109.5 C 243.19,109.168 252.856,109.502 262.5,110.5C 262.376,111.107 262.043,111.44 261.5,111.5C 246.279,110.091 230.946,110.425 215.5,112.5C 217.167,111.833 218.833,111.167 220.5,110.5C 224.798,109.8 229.131,109.467 233.5,109.5 Z"/></g>
<g><path style="opacity:0.682" fill="#817e7b" d="M 303.5,103.5 C 302.378,104.156 301.045,104.489 299.5,104.5C 264.239,98.486 229.239,99.486 194.5,107.5C 171.9,112.638 150.234,120.305 129.5,130.5C 128.833,130.5 128.167,130.5 127.5,130.5C 182.864,101.287 241.531,92.2869 303.5,103.5 Z"/></g>
<g><path style="opacity:1" fill="#d9d6d4" d="M 330.5,111.5 C 343.235,115.197 355.568,120.03 367.5,126C 364.513,125.937 361.68,125.103 359,123.5C 355.16,124.332 351.493,124.332 348,123.5C 345.031,124.603 344.864,125.936 347.5,127.5C 347.167,127.833 346.833,128.167 346.5,128.5C 344.382,127.054 342.049,126.387 339.5,126.5C 339.167,126.5 338.833,126.5 338.5,126.5C 333.43,123.147 327.763,121.147 321.5,120.5C 313.637,116.886 305.304,114.886 296.5,114.5C 295.5,114.5 294.5,114.5 293.5,114.5C 293.5,114.167 293.5,113.833 293.5,113.5C 295.527,113.662 297.527,113.495 299.5,113C 299.167,112.667 298.833,112.333 298.5,112C 299.766,111.691 300.933,111.191 302,110.5C 304.342,111.851 306.675,112.184 309,111.5C 310.895,112.689 312.895,113.689 315,114.5C 317.875,113.196 320.875,112.196 324,111.5C 326.324,112.693 328.49,112.693 330.5,111.5 Z"/></g>
<g><path style="opacity:0.184" fill="#655b5d" d="M 296.5,114.5 C 305.304,114.886 313.637,116.886 321.5,120.5C 312.955,118.946 304.622,116.946 296.5,114.5 Z"/></g>
<g><path style="opacity:0.835" fill="#6e6464" d="M 211.5,112.5 C 193.931,115.894 176.598,120.561 159.5,126.5C 159.47,125.503 159.97,124.836 161,124.5C 163.995,123.724 166.828,122.557 169.5,121C 167.071,120.297 164.738,120.463 162.5,121.5C 161.791,120.596 160.791,120.263 159.5,120.5C 162.959,118.924 166.626,117.591 170.5,116.5C 171.113,118.043 172.779,119.043 175.5,119.5C 187.279,115.904 199.279,113.57 211.5,112.5 Z"/></g>
<g><path style="opacity:0.357" fill="#635b5e" d="M 321.5,120.5 C 327.763,121.147 333.43,123.147 338.5,126.5C 332.608,124.871 326.941,122.871 321.5,120.5 Z"/></g>
<g><path style="opacity:1" fill="#eae7e5" d="M 258.5,114.5 C 258.953,115.458 259.619,116.292 260.5,117C 259.549,117.718 259.383,118.551 260,119.5C 261.209,119.653 262.375,119.986 263.5,120.5C 257.573,124.419 251.906,128.752 246.5,133.5C 245.763,131.618 244.596,130.952 243,131.5C 242.333,138.167 241.667,138.167 241,131.5C 240,132.5 239,133.5 238,134.5C 237.1,133.23 235.934,132.23 234.5,131.5C 235.718,130.197 235.385,129.197 233.5,128.5C 233.709,127.914 234.043,127.414 234.5,127C 240.723,126.556 245.723,124.056 249.5,119.5C 250.802,117.178 252.802,115.845 255.5,115.5C 256.609,115.443 257.609,115.11 258.5,114.5 Z"/></g>
<g><path style="opacity:1" fill="#1f1c1c" d="M 293.5,113.5 C 293.5,113.833 293.5,114.167 293.5,114.5C 291.473,114.338 289.473,114.505 287.5,115C 286.295,116.376 284.962,117.542 283.5,118.5C 282.796,116.656 281.463,116.156 279.5,117C 263.44,123.567 249.774,133.401 238.5,146.5C 232.218,153.61 224.885,159.444 216.5,164C 217.448,164.483 218.448,164.649 219.5,164.5C 215.04,165.976 210.374,167.142 205.5,168C 203.047,168.959 200.714,170.126 198.5,171.5C 197.609,172.11 196.609,172.443 195.5,172.5C 195.123,170.742 194.456,169.075 193.5,167.5C 195.924,154.293 202.59,143.96 213.5,136.5C 210.43,139.564 207.763,142.897 205.5,146.5C 199.495,152.517 196.162,159.85 195.5,168.5C 208.107,166.863 218.774,161.53 227.5,152.5C 231.167,149.5 234.5,146.167 237.5,142.5C 240.806,139.86 243.806,136.86 246.5,133.5C 251.906,128.752 257.573,124.419 263.5,120.5C 272.225,116.025 281.391,112.691 291,110.5C 291.147,111.622 291.981,112.622 293.5,113.5 Z"/></g>
<g><path style="opacity:1" fill="#b1afaf" d="M 306.5,104.5 C 353.967,113.315 394.8,134.649 429,168.5C 437.912,178.234 445.412,188.9 451.5,200.5C 450.778,200.918 450.278,201.584 450,202.5C 447.321,197.131 444.154,192.131 440.5,187.5C 436.559,181.226 431.892,175.56 426.5,170.5C 420.09,162.754 412.757,156.087 404.5,150.5C 398.6,144.871 391.933,140.204 384.5,136.5C 384.167,136.833 383.833,137.167 383.5,137.5C 384.376,138.251 385.376,138.751 386.5,139C 385.5,140 384.5,141 383.5,142C 384.167,142.333 384.833,142.667 385.5,143C 385.619,144.281 385.119,145.448 384,146.5C 381.356,144.69 378.856,142.69 376.5,140.5C 374.518,141.623 372.518,141.623 370.5,140.5C 360.158,135.831 349.825,131.165 339.5,126.5C 342.049,126.387 344.382,127.054 346.5,128.5C 346.833,128.167 347.167,127.833 347.5,127.5C 344.864,125.936 345.031,124.603 348,123.5C 351.493,124.332 355.16,124.332 359,123.5C 361.68,125.103 364.513,125.937 367.5,126C 355.568,120.03 343.235,115.197 330.5,111.5C 322.681,109.046 314.681,107.213 306.5,106C 303.903,105.221 303.903,104.721 306.5,104.5 Z"/></g>
<g><path style="opacity:0.255" fill="#4b4a49" d="M 275.5,122.5 C 273.451,125.55 270.784,127.883 267.5,129.5C 269.336,126.244 272.003,123.911 275.5,122.5 Z"/></g>
<g><path style="opacity:1" fill="#c9c5c5" d="M 194.5,107.5 C 198.809,108.484 203.309,109.151 208,109.5C 210.281,109.179 212.448,108.512 214.5,107.5C 216.569,107.824 216.902,108.658 215.5,110C 217.134,110.494 218.801,110.66 220.5,110.5C 218.833,111.167 217.167,111.833 215.5,112.5C 214.167,112.5 212.833,112.5 211.5,112.5C 199.279,113.57 187.279,115.904 175.5,119.5C 172.779,119.043 171.113,118.043 170.5,116.5C 166.626,117.591 162.959,118.924 159.5,120.5C 153.869,122.062 148.369,124.062 143,126.5C 133.715,130.956 124.548,135.623 115.5,140.5C 120.167,137.167 124.833,133.833 129.5,130.5C 150.234,120.305 171.9,112.638 194.5,107.5 Z"/></g>
<g><path style="opacity:1" fill="#9b9596" d="M 159.5,126.5 C 159.167,126.5 158.833,126.5 158.5,126.5C 152.889,127.145 147.889,129.145 143.5,132.5C 139.776,135.029 135.776,137.029 131.5,138.5C 128.167,139.833 124.833,141.167 121.5,142.5C 122.475,140.807 123.808,139.307 125.5,138C 137.376,131.449 149.709,125.949 162.5,121.5C 164.738,120.463 167.071,120.297 169.5,121C 166.828,122.557 163.995,123.724 161,124.5C 159.97,124.836 159.47,125.503 159.5,126.5 Z"/></g>
<g><path style="opacity:0.09" fill="#433838" d="M 158.5,126.5 C 153.883,129.266 148.883,131.266 143.5,132.5C 147.889,129.145 152.889,127.145 158.5,126.5 Z"/></g>
<g><path style="opacity:1" fill="#dad8d7" d="M 249.5,119.5 C 245.723,124.056 240.723,126.556 234.5,127C 234.043,127.414 233.709,127.914 233.5,128.5C 235.385,129.197 235.718,130.197 234.5,131.5C 235.934,132.23 237.1,133.23 238,134.5C 239,133.5 240,132.5 241,131.5C 241.667,138.167 242.333,138.167 243,131.5C 244.596,130.952 245.763,131.618 246.5,133.5C 243.806,136.86 240.806,139.86 237.5,142.5C 234.92,143.737 232.42,144.404 230,144.5C 229.625,143.027 228.458,141.527 226.5,140C 225.552,139.517 224.552,139.351 223.5,139.5C 223.5,137.833 223.5,136.167 223.5,134.5C 221.517,134.843 220.183,134.176 219.5,132.5C 226.713,127.699 234.713,124.532 243.5,123C 245.391,121.558 247.391,120.391 249.5,119.5 Z"/></g>
<g><path style="opacity:1" fill="#dcdbd7" d="M 283.5,118.5 C 280.807,119.847 278.14,121.18 275.5,122.5C 272.003,123.911 269.336,126.244 267.5,129.5C 264.514,133.817 261.18,137.817 257.5,141.5C 255.637,143.705 253.303,145.039 250.5,145.5C 250.934,148.166 249.934,149.333 247.5,149C 248.888,148.111 248.722,147.611 247,147.5C 245.34,148.829 243.507,149.829 241.5,150.5C 240.904,149.284 240.737,147.951 241,146.5C 240.023,147.774 239.189,147.774 238.5,146.5C 249.774,133.401 263.44,123.567 279.5,117C 281.463,116.156 282.796,116.656 283.5,118.5 Z"/></g>
<g><path style="opacity:1" fill="#c6c3c6" d="M 115.5,140.5 C 111.614,144.79 106.947,148.123 101.5,150.5C 105.284,146.068 109.95,142.734 115.5,140.5 Z"/></g>
<g><path style="opacity:1" fill="#c5c5c4" d="M 219.5,132.5 C 220.183,134.176 221.517,134.843 223.5,134.5C 223.5,136.167 223.5,137.833 223.5,139.5C 224.552,139.351 225.552,139.517 226.5,140C 228.458,141.527 229.625,143.027 230,144.5C 232.42,144.404 234.92,143.737 237.5,142.5C 234.5,146.167 231.167,149.5 227.5,152.5C 225.683,151.781 225.016,150.781 225.5,149.5C 220.952,156.887 216.286,157.387 211.5,151C 211.833,150.667 212.167,150.333 212.5,150C 209.555,149.861 207.221,148.694 205.5,146.5C 207.763,142.897 210.43,139.564 213.5,136.5C 214.802,134.178 216.802,132.845 219.5,132.5 Z"/></g>
<g><path style="opacity:0.216" fill="#484544" d="M 131.5,138.5 C 124.852,144.162 117.519,148.829 109.5,152.5C 113.164,148.843 117.164,145.509 121.5,142.5C 124.833,141.167 128.167,139.833 131.5,138.5 Z"/></g>
<g><path style="opacity:1" fill="#969595" d="M 404.5,150.5 C 404.5,151.5 404.5,152.5 404.5,153.5C 403.448,153.351 402.448,153.517 401.5,154C 402.711,154.893 402.711,155.726 401.5,156.5C 397.893,154.115 393.893,152.782 389.5,152.5C 382.99,148.747 376.656,144.747 370.5,140.5C 372.518,141.623 374.518,141.623 376.5,140.5C 378.856,142.69 381.356,144.69 384,146.5C 385.119,145.448 385.619,144.281 385.5,143C 384.833,142.667 384.167,142.333 383.5,142C 384.5,141 385.5,140 386.5,139C 385.376,138.751 384.376,138.251 383.5,137.5C 383.833,137.167 384.167,136.833 384.5,136.5C 391.933,140.204 398.6,144.871 404.5,150.5 Z"/></g>
<g><path style="opacity:1" fill="#858584" d="M 404.5,150.5 C 412.757,156.087 420.09,162.754 426.5,170.5C 426.062,170.435 425.728,170.601 425.5,171C 426.5,172 427.5,173 428.5,174C 425.409,174.184 422.409,175.017 419.5,176.5C 415.488,173.485 411.488,170.485 407.5,167.5C 401.475,162.47 395.475,157.47 389.5,152.5C 393.893,152.782 397.893,154.115 401.5,156.5C 402.711,155.726 402.711,154.893 401.5,154C 402.448,153.517 403.448,153.351 404.5,153.5C 404.5,152.5 404.5,151.5 404.5,150.5 Z"/></g>
<g><path style="opacity:0.165" fill="#544347" d="M 247.5,152.5 C 245.853,154.326 243.853,155.66 241.5,156.5C 242.733,154.204 244.733,152.87 247.5,152.5 Z"/></g>
<g><path style="opacity:1" fill="#b8b5b6" d="M 205.5,146.5 C 207.221,148.694 209.555,149.861 212.5,150C 212.167,150.333 211.833,150.667 211.5,151C 216.286,157.387 220.952,156.887 225.5,149.5C 225.016,150.781 225.683,151.781 227.5,152.5C 218.774,161.53 208.107,166.863 195.5,168.5C 196.162,159.85 199.495,152.517 205.5,146.5 Z"/></g>
<g><path style="opacity:1" fill="#c4c1c5" d="M 101.5,150.5 C 97.9493,154.289 93.9493,157.622 89.5,160.5C 92.5736,156.096 96.5736,152.763 101.5,150.5 Z"/></g>
<g><path style="opacity:1" fill="#1c1d1c" d="M 159.5,120.5 C 160.791,120.263 161.791,120.596 162.5,121.5C 149.709,125.949 137.376,131.449 125.5,138C 123.808,139.307 122.475,140.807 121.5,142.5C 112.187,147.303 103.52,153.136 95.5,160C 89.5694,165.424 84.2361,171.258 79.5,177.5C 76.2026,180.296 73.0359,183.296 70,186.5C 69.6012,186.272 69.4346,185.938 69.5,185.5C 75.4372,176.565 82.1038,168.232 89.5,160.5C 93.9493,157.622 97.9493,154.289 101.5,150.5C 106.947,148.123 111.614,144.79 115.5,140.5C 124.548,135.623 133.715,130.956 143,126.5C 148.369,124.062 153.869,122.062 159.5,120.5 Z"/></g>
<g><path style="opacity:1" fill="#bab7b5" d="M 257.5,141.5 C 254.871,145.797 251.537,149.463 247.5,152.5C 244.733,152.87 242.733,154.204 241.5,156.5C 236.265,157.565 231.598,159.565 227.5,162.5C 225.162,164.04 222.495,164.706 219.5,164.5C 218.448,164.649 217.448,164.483 216.5,164C 224.885,159.444 232.218,153.61 238.5,146.5C 239.189,147.774 240.023,147.774 241,146.5C 240.737,147.951 240.904,149.284 241.5,150.5C 243.507,149.829 245.34,148.829 247,147.5C 248.722,147.611 248.888,148.111 247.5,149C 249.934,149.333 250.934,148.166 250.5,145.5C 253.303,145.039 255.637,143.705 257.5,141.5 Z"/></g>
<g><path style="opacity:0.153" fill="#403939" d="M 241.5,156.5 C 237.37,159.56 232.704,161.56 227.5,162.5C 231.598,159.565 236.265,157.565 241.5,156.5 Z"/></g>
<g><path style="opacity:1" fill="#93918e" d="M 121.5,142.5 C 117.164,145.509 113.164,148.843 109.5,152.5C 98.6097,159.719 88.943,168.386 80.5,178.5C 79.8333,178.5 79.5,178.167 79.5,177.5C 84.2361,171.258 89.5694,165.424 95.5,160C 103.52,153.136 112.187,147.303 121.5,142.5 Z"/></g>
<g><path style="opacity:0.543" fill="#393632" d="M 109.5,152.5 C 101.891,159.016 94.5573,166.016 87.5,173.5C 81.0595,181.259 75.0595,189.259 69.5,197.5C 69.7553,194.984 70.5886,192.65 72,190.5C 74.6641,186.343 77.4975,182.343 80.5,178.5C 88.943,168.386 98.6097,159.719 109.5,152.5 Z"/></g>
<g><path style="opacity:1" fill="#747273" d="M 407.5,167.5 C 411.488,170.485 415.488,173.485 419.5,176.5C 422.409,175.017 425.409,174.184 428.5,174C 427.5,173 426.5,172 425.5,171C 425.728,170.601 426.062,170.435 426.5,170.5C 431.892,175.56 436.559,181.226 440.5,187.5C 437.93,188.484 437.93,189.651 440.5,191C 439.285,193.096 438.451,192.929 438,190.5C 437.5,191.5 437,192.5 436.5,193.5C 438.246,197.387 437.246,198.72 433.5,197.5C 425.788,186.793 417.121,176.793 407.5,167.5 Z"/></g>
<g><path style="opacity:1" fill="#a3a4a4" d="M 89.5,160.5 C 82.1038,168.232 75.4372,176.565 69.5,185.5C 66.8333,188.5 64.1667,191.5 61.5,194.5C 68.5776,182.218 77.2443,171.052 87.5,161C 88.0944,160.536 88.7611,160.369 89.5,160.5 Z"/></g>
<g><path style="opacity:0.314" fill="#454144" d="M 127.5,130.5 C 128.167,130.5 128.833,130.5 129.5,130.5C 124.833,133.833 120.167,137.167 115.5,140.5C 109.95,142.734 105.284,146.068 101.5,150.5C 96.5736,152.763 92.5736,156.096 89.5,160.5C 88.7611,160.369 88.0944,160.536 87.5,161C 77.2443,171.052 68.5776,182.218 61.5,194.5C 58.2744,197.93 55.7744,201.93 54,206.5C 50.998,214.225 48.1647,221.892 45.5,229.5C 53.8415,195.997 71.8415,168.83 99.5,148C 108.207,141.119 117.54,135.286 127.5,130.5 Z"/></g>
<g><path style="opacity:1" fill="#dad8d8" d="M 206.5,176.5 C 206.5,188.167 206.5,199.833 206.5,211.5C 221.343,211.829 236.01,211.496 250.5,210.5C 253.016,210.245 255.35,209.411 257.5,208C 259.959,205.554 262.292,203.054 264.5,200.5C 265.583,201.365 265.749,202.365 265,203.5C 263.705,206.292 262.205,208.958 260.5,211.5C 258.616,209.194 256.616,209.361 254.5,212C 238.17,212.5 221.837,212.667 205.5,212.5C 205.728,207.325 204.895,202.325 203,197.5C 202.529,199.246 201.862,200.913 201,202.5C 200.667,201.5 200.333,200.5 200,199.5C 198.133,201.808 197.133,204.475 197,207.5C 196.5,197.172 196.334,186.839 196.5,176.5C 199.833,176.5 203.167,176.5 206.5,176.5 Z"/></g>
<g><path style="opacity:0.414" fill="#575757" d="M 401.5,185.5 C 403.948,184.527 406.615,184.194 409.5,184.5C 409.248,188.327 407.915,191.66 405.5,194.5C 405.503,191.325 406.503,188.492 408.5,186C 406.19,185.503 403.857,185.337 401.5,185.5 Z"/></g>
<g><path style="opacity:1" fill="#868686" d="M 136.5,223.5 C 135.427,224.251 135.26,225.251 136,226.5C 140.333,231.833 144.667,237.167 149,242.5C 149.528,243.816 149.028,244.483 147.5,244.5C 143.201,237.537 137.867,231.537 131.5,226.5C 130.881,223.405 129.881,223.071 128.5,225.5C 125.175,223.847 123.508,221.18 123.5,217.5C 121.097,217.552 118.764,217.219 116.5,216.5C 113.785,213.786 111.451,210.786 109.5,207.5C 108.928,205.745 108.094,204.078 107,202.5C 106.536,203.094 106.369,203.761 106.5,204.5C 105.504,204.586 104.671,204.252 104,203.5C 103.34,205.324 102.173,206.657 100.5,207.5C 100.5,200.833 100.5,194.167 100.5,187.5C 103.249,187.274 105.916,187.607 108.5,188.5C 117.857,200.186 127.19,211.852 136.5,223.5 Z"/></g>
<g><path style="opacity:1" fill="#d3d2d0" d="M 279.5,204.5 C 279.5,203.833 279.5,203.167 279.5,202.5C 279.34,200.801 279.506,199.134 280,197.5C 280.333,197.833 280.667,198.167 281,198.5C 282.836,196.038 282.003,194.538 278.5,194C 277.167,193 277.167,192 278.5,191C 276.833,189.667 275.167,188.333 273.5,187C 277.541,186.173 281.541,186.34 285.5,187.5C 288.264,193.96 290.931,200.46 293.5,207C 293.333,207.5 293.167,208 293,208.5C 292.477,206.777 291.477,205.444 290,204.5C 287.392,205.609 285.226,207.276 283.5,209.5C 282.289,208.726 282.289,207.893 283.5,207C 282.016,206.338 280.683,205.504 279.5,204.5 Z"/></g>
<g><path style="opacity:1" fill="#aeaeac" d="M 401.5,185.5 C 403.857,185.337 406.19,185.503 408.5,186C 406.503,188.492 405.503,191.325 405.5,194.5C 400.944,203.282 396.61,212.282 392.5,221.5C 391.732,220.737 391.232,219.737 391,218.5C 390.051,220.093 388.885,221.426 387.5,222.5C 390.814,213.196 394.147,203.863 397.5,194.5C 398.059,191.057 399.393,188.057 401.5,185.5 Z"/></g>
<g><path style="opacity:1" fill="#bfbebe" d="M 169.5,164.5 C 171.833,164.5 174.167,164.5 176.5,164.5C 176.5,165.5 176.5,166.5 176.5,167.5C 176.5,191.5 176.5,215.5 176.5,239.5C 175.778,235.609 174.944,231.609 174,227.5C 173.333,228.167 172.667,228.833 172,229.5C 170.968,237.618 170.135,245.618 169.5,253.5C 169.5,223.833 169.5,194.167 169.5,164.5 Z"/></g>
<g><path style="opacity:0.345" fill="#464646" d="M 405.5,194.5 C 400.188,210.461 393.521,225.794 385.5,240.5C 387.538,234.084 389.872,227.751 392.5,221.5C 396.61,212.282 400.944,203.282 405.5,194.5 Z"/></g>
<g><path style="opacity:0.129" fill="#8c8987" d="M 177.5,265.5 C 177.832,232.662 177.498,199.996 176.5,167.5C 176.5,166.5 176.5,165.5 176.5,164.5C 174.167,164.5 171.833,164.5 169.5,164.5C 168.833,164.5 168.167,164.5 167.5,164.5C 167.611,163.883 167.944,163.383 168.5,163C 170,162.833 171.5,162.667 173,162.5C 174.981,162.629 176.647,163.296 178,164.5C 178.831,198.336 178.664,232.002 177.5,265.5 Z"/></g>
<g><path style="opacity:0.59" fill="#9b9395" d="M 198.5,171.5 C 201.749,172.869 204.916,174.535 208,176.5C 208.179,187.41 208.679,198.243 209.5,209C 223.521,209.743 237.521,209.576 251.5,208.5C 251.082,209.222 250.416,209.722 249.5,210C 249.728,210.399 250.062,210.565 250.5,210.5C 236.01,211.496 221.343,211.829 206.5,211.5C 206.5,199.833 206.5,188.167 206.5,176.5C 202.833,175.167 199.167,175.167 195.5,176.5C 194.833,176.5 194.167,176.5 193.5,176.5C 194.167,175.167 194.833,173.833 195.5,172.5C 196.609,172.443 197.609,172.11 198.5,171.5 Z"/></g>
<g><path style="opacity:1" fill="#abaaaa" d="M 303.5,225.5 C 301.908,224.398 301.075,225.065 301,227.5C 300.115,225 298.948,222.667 297.5,220.5C 295.588,223.476 293.254,223.976 290.5,222C 293.741,220.016 295.241,217.182 295,213.5C 291.933,215.903 289.6,218.903 288,222.5C 287.878,220.563 287.045,219.23 285.5,218.5C 283.485,213.807 281.485,209.141 279.5,204.5C 280.683,205.504 282.016,206.338 283.5,207C 282.289,207.893 282.289,208.726 283.5,209.5C 285.226,207.276 287.392,205.609 290,204.5C 291.477,205.444 292.477,206.777 293,208.5C 293.167,208 293.333,207.5 293.5,207C 290.931,200.46 288.264,193.96 285.5,187.5C 281.541,186.34 277.541,186.173 273.5,187C 275.167,188.333 276.833,189.667 278.5,191C 277.167,192 277.167,193 278.5,194C 282.003,194.538 282.836,196.038 281,198.5C 280.667,198.167 280.333,197.833 280,197.5C 279.506,199.134 279.34,200.801 279.5,202.5C 276.837,197.239 274.17,191.906 271.5,186.5C 271.709,185.914 272.043,185.414 272.5,185C 277.167,184.333 281.833,184.333 286.5,185C 292.631,198.414 298.298,211.914 303.5,225.5 Z"/></g>
<g><path style="opacity:1" fill="#c1c0bf" d="M 206.5,176.5 C 203.167,176.5 199.833,176.5 196.5,176.5C 196.334,186.839 196.5,197.172 197,207.5C 197.133,204.475 198.133,201.808 200,199.5C 200.333,200.5 200.667,201.5 201,202.5C 201.862,200.913 202.529,199.246 203,197.5C 204.895,202.325 205.728,207.325 205.5,212.5C 221.837,212.667 238.17,212.5 254.5,212C 256.616,209.361 258.616,209.194 260.5,211.5C 259.392,213.781 258.058,215.948 256.5,218C 239.837,218.5 223.17,218.667 206.5,218.5C 206.5,220.167 206.5,221.833 206.5,223.5C 205.189,221.44 205.189,219.274 206.5,217C 204.667,214.5 202.5,212.333 200,210.5C 199.333,211.833 198.667,211.833 198,210.5C 197.667,213.833 197.333,217.167 197,220.5C 196.823,216.644 196.323,212.977 195.5,209.5C 195.5,198.5 195.5,187.5 195.5,176.5C 199.167,175.167 202.833,175.167 206.5,176.5 Z"/></g>
<g><path style="opacity:1" fill="#6c6c6d" d="M 440.5,187.5 C 444.154,192.131 447.321,197.131 450,202.5C 450.278,201.584 450.778,200.918 451.5,200.5C 457.79,211.959 461.79,224.292 463.5,237.5C 462.71,236.391 462.21,235.058 462,233.5C 461.667,234.167 461.333,234.833 461,235.5C 458.816,236.108 456.816,235.441 455,233.5C 454.798,235.256 454.298,236.922 453.5,238.5C 453.251,237.418 453.085,236.085 453,234.5C 452.667,234.833 452.333,235.167 452,235.5C 451.781,234.062 451.281,232.729 450.5,231.5C 449.692,233.423 449.192,235.423 449,237.5C 448.79,235.942 448.29,234.609 447.5,233.5C 444.481,220.806 439.815,208.806 433.5,197.5C 437.246,198.72 438.246,197.387 436.5,193.5C 437,192.5 437.5,191.5 438,190.5C 438.451,192.929 439.285,193.096 440.5,191C 437.93,189.651 437.93,188.484 440.5,187.5 Z"/></g>
<g><path style="opacity:1" fill="#888688" d="M 106.5,204.5 C 106.667,221.503 106.5,238.503 106,255.5C 105.667,250.5 105.333,245.5 105,240.5C 102.713,238.763 102.213,236.43 103.5,233.5C 102.5,233.5 101.5,233.5 100.5,233.5C 100.819,238.363 100.486,243.03 99.5,247.5C 99.5,239.833 99.5,232.167 99.5,224.5C 100.489,219.025 100.822,213.358 100.5,207.5C 102.173,206.657 103.34,205.324 104,203.5C 104.671,204.252 105.504,204.586 106.5,204.5 Z"/></g>
<g><path style="opacity:0.494" fill="#57554f" d="M 397.5,194.5 C 394.147,203.863 390.814,213.196 387.5,222.5C 382.833,231.833 378.167,241.167 373.5,250.5C 379.395,235.046 385.562,219.712 392,204.5C 393.608,200.944 395.441,197.611 397.5,194.5 Z"/></g>
<g><path style="opacity:0.935" fill="#6b6567" d="M 255.5,220.5 C 239.675,219.504 223.675,219.17 207.5,219.5C 207.263,220.791 207.596,221.791 208.5,222.5C 208.335,226.182 208.501,229.848 209,233.5C 209.383,234.056 209.883,234.389 210.5,234.5C 211.239,234.369 211.906,234.536 212.5,235C 211.263,235.232 210.263,235.732 209.5,236.5C 208.5,236.5 207.5,236.5 206.5,236.5C 206.5,232.167 206.5,227.833 206.5,223.5C 206.5,221.833 206.5,220.167 206.5,218.5C 223.17,218.667 239.837,218.5 256.5,218C 258.058,215.948 259.392,213.781 260.5,211.5C 262.205,208.958 263.705,206.292 265,203.5C 265.749,202.365 265.583,201.365 264.5,200.5C 262.292,203.054 259.959,205.554 257.5,208C 255.35,209.411 253.016,210.245 250.5,210.5C 250.062,210.565 249.728,210.399 249.5,210C 250.416,209.722 251.082,209.222 251.5,208.5C 253.255,207.928 254.922,207.094 256.5,206C 258.126,203.372 260.126,201.039 262.5,199C 266.667,197.833 268.167,199.333 267,203.5C 264.615,210.309 260.781,215.975 255.5,220.5 Z"/></g>
<g><path style="opacity:0.463" fill="#1b1113" d="M 255.5,220.5 C 239.803,221.152 224.137,221.818 208.5,222.5C 207.596,221.791 207.263,220.791 207.5,219.5C 223.675,219.17 239.675,219.504 255.5,220.5 Z"/></g>
<g><path style="opacity:1" fill="#686668" d="M 79.5,177.5 C 79.5,178.167 79.8333,178.5 80.5,178.5C 77.4975,182.343 74.6641,186.343 72,190.5C 70.5886,192.65 69.7553,194.984 69.5,197.5C 67.753,201.991 65.753,206.325 63.5,210.5C 61.7823,211.848 60.6156,214.182 60,217.5C 58.4037,222.418 57.237,227.418 56.5,232.5C 55.6805,229.695 55.1805,226.695 55,223.5C 54.6411,226.544 53.9745,226.878 53,224.5C 52.2797,226.112 52.4464,227.612 53.5,229C 52.3333,229.5 51.5,230.333 51,231.5C 48.8707,230.137 48.3707,230.471 49.5,232.5C 49.1128,235.206 48.1128,237.539 46.5,239.5C 45.5159,236.572 45.1826,233.572 45.5,230.5C 45.5,230.167 45.5,229.833 45.5,229.5C 48.1647,221.892 50.998,214.225 54,206.5C 55.7744,201.93 58.2744,197.93 61.5,194.5C 64.1667,191.5 66.8333,188.5 69.5,185.5C 69.4346,185.938 69.6012,186.272 70,186.5C 73.0359,183.296 76.2026,180.296 79.5,177.5 Z"/></g>
<g><path style="opacity:1" fill="#aeadad" d="M 195.5,209.5 C 196.323,212.977 196.823,216.644 197,220.5C 197.333,217.167 197.667,213.833 198,210.5C 198.667,211.833 199.333,211.833 200,210.5C 202.5,212.333 204.667,214.5 206.5,217C 205.189,219.274 205.189,221.44 206.5,223.5C 206.5,227.833 206.5,232.167 206.5,236.5C 207.5,236.5 208.5,236.5 209.5,236.5C 219.5,236.5 229.5,236.5 239.5,236.5C 239.662,238.527 239.495,240.527 239,242.5C 238.506,240.866 238.34,239.199 238.5,237.5C 225.666,237.412 213,237.412 200.5,237.5C 200.5,236.5 200.5,235.5 200.5,234.5C 199.178,234.33 198.011,234.663 197,235.5C 196.722,234.584 196.222,233.918 195.5,233.5C 195.5,225.5 195.5,217.5 195.5,209.5 Z"/></g>
<g><path style="opacity:0.796" fill="#888283" d="M 116.5,216.5 C 118.764,217.219 121.097,217.552 123.5,217.5C 123.508,221.18 125.175,223.847 128.5,225.5C 129.881,223.071 130.881,223.405 131.5,226.5C 131.264,229.226 132.097,231.559 134,233.5C 146.044,247.373 157.877,261.373 169.5,275.5C 170.702,277.392 172.035,279.226 173.5,281C 172.906,281.464 172.239,281.631 171.5,281.5C 153.167,259.833 134.833,238.167 116.5,216.5 Z"/></g>
<g><path style="opacity:1" fill="#949392" d="M 359.5,234.5 C 358.325,234.719 357.325,234.386 356.5,233.5C 355.274,230.048 353.774,226.715 352,223.5C 350.129,224.997 349.129,226.997 349,229.5C 348.667,229.833 348.333,230.167 348,230.5C 347.692,229.692 347.192,229.025 346.5,228.5C 345.943,230.332 344.943,231.665 343.5,232.5C 343.5,232.167 343.5,231.833 343.5,231.5C 343.849,228.537 342.849,226.204 340.5,224.5C 337.728,228.043 336.061,232.043 335.5,236.5C 333.774,238.942 332.274,241.609 331,244.5C 329.601,245.227 328.101,245.727 326.5,246C 325.837,247.518 324.837,248.685 323.5,249.5C 323.5,248.167 323.5,246.833 323.5,245.5C 330.321,230.867 336.655,216.034 342.5,201C 344.112,200.28 345.612,200.446 347,201.5C 351.072,212.552 355.239,223.552 359.5,234.5 Z"/></g>
<g><path style="opacity:0.337" fill="#403c3d" d="M 343.5,231.5 C 342.442,230.4 341.608,229.066 341,227.5C 339.141,230.564 337.308,233.564 335.5,236.5C 336.061,232.043 337.728,228.043 340.5,224.5C 342.849,226.204 343.849,228.537 343.5,231.5 Z"/></g>
<g><path style="opacity:0.966" fill="#4b4a4a" d="M 97.5,186.5 C 97.5,186.167 97.5,185.833 97.5,185.5C 99.4809,198.124 100.148,211.124 99.5,224.5C 99.5,232.167 99.5,239.833 99.5,247.5C 99.3335,258.838 99.5001,270.172 100,281.5C 100.333,274.5 100.667,267.5 101,260.5C 102.314,259.687 103.481,258.687 104.5,257.5C 105.332,265.813 105.832,274.147 106,282.5C 106.383,283.056 106.883,283.389 107.5,283.5C 106.329,284.345 104.995,285.011 103.5,285.5C 102.448,283.744 100.781,283.077 98.5,283.5C 98.8316,250.996 98.4982,218.662 97.5,186.5 Z"/></g>
<g><path style="opacity:1" fill="#616060" d="M 56.5,232.5 C 55.7787,241.808 55.2787,251.141 55,260.5C 52.2765,263.28 50.6098,266.614 50,270.5C 49.3333,271.833 48.6667,271.833 48,270.5C 47.7645,272.119 46.9311,273.119 45.5,273.5C 42.87,259.031 42.87,244.698 45.5,230.5C 45.1826,233.572 45.5159,236.572 46.5,239.5C 48.1128,237.539 49.1128,235.206 49.5,232.5C 48.3707,230.471 48.8707,230.137 51,231.5C 51.5,230.333 52.3333,229.5 53.5,229C 52.4464,227.612 52.2797,226.112 53,224.5C 53.9745,226.878 54.6411,226.544 55,223.5C 55.1805,226.695 55.6805,229.695 56.5,232.5 Z"/></g>
<g><path style="opacity:1" fill="#959493" d="M 303.5,225.5 C 307.363,235.089 311.03,244.755 314.5,254.5C 313.603,255.598 312.77,255.598 312,254.5C 310.287,248.743 307.787,243.41 304.5,238.5C 303.158,239.902 302.324,239.569 302,237.5C 300.513,238.253 300.346,239.086 301.5,240C 300.551,240.617 299.718,240.451 299,239.5C 298.632,240.91 297.799,241.91 296.5,242.5C 296.252,239.718 295.752,236.718 295,233.5C 294.667,234.833 294.333,236.167 294,237.5C 293.623,236.058 292.79,235.058 291.5,234.5C 288.94,229.38 286.94,224.046 285.5,218.5C 287.045,219.23 287.878,220.563 288,222.5C 289.6,218.903 291.933,215.903 295,213.5C 295.241,217.182 293.741,220.016 290.5,222C 293.254,223.976 295.588,223.476 297.5,220.5C 298.948,222.667 300.115,225 301,227.5C 301.075,225.065 301.908,224.398 303.5,225.5 Z"/></g>
<g><path style="opacity:0.488" fill="#141212" d="M 97.5,186.5 C 98.4982,218.662 98.8316,250.996 98.5,283.5C 100.781,283.077 102.448,283.744 103.5,285.5C 101.738,285.643 100.071,285.309 98.5,284.5C 97.5001,251.84 97.1668,219.173 97.5,186.5 Z"/></g>
<g><path style="opacity:1" fill="#7d7c7c" d="M 359.5,234.5 C 362.224,240.338 364.557,246.338 366.5,252.5C 365.883,252.611 365.383,252.944 365,253.5C 362.864,248.095 360.53,242.762 358,237.5C 357.667,239.833 357.333,242.167 357,244.5C 355.965,247.786 354.465,248.12 352.5,245.5C 351.534,243.604 351.201,241.604 351.5,239.5C 350.178,239.67 349.011,239.337 348,238.5C 347.536,239.094 347.369,239.761 347.5,240.5C 345.989,237.995 344.655,235.328 343.5,232.5C 344.943,231.665 345.943,230.332 346.5,228.5C 347.192,229.025 347.692,229.692 348,230.5C 348.333,230.167 348.667,229.833 349,229.5C 349.129,226.997 350.129,224.997 352,223.5C 353.774,226.715 355.274,230.048 356.5,233.5C 357.325,234.386 358.325,234.719 359.5,234.5 Z"/></g>
<g><path style="opacity:0.763" fill="#201c1f" d="M 193.5,176.5 C 194.167,176.5 194.833,176.5 195.5,176.5C 195.5,187.5 195.5,198.5 195.5,209.5C 195.5,217.5 195.5,225.5 195.5,233.5C 195.5,248.167 195.5,262.833 195.5,277.5C 195.5,279.5 195.5,281.5 195.5,283.5C 194.883,283.389 194.383,283.056 194,282.5C 193.5,247.168 193.333,211.835 193.5,176.5 Z"/></g>
<g><path style="opacity:1" fill="#626263" d="M 463.5,237.5 C 464.523,244.661 464.523,251.661 463.5,258.5C 463.649,257.448 463.483,256.448 463,255.5C 462.607,258.633 461.774,261.633 460.5,264.5C 459.833,263.5 459.167,262.5 458.5,261.5C 457.289,262.274 457.289,263.107 458.5,264C 456.807,265.25 455.473,266.75 454.5,268.5C 454.489,266.314 453.489,265.481 451.5,266C 451.957,266.414 452.291,266.914 452.5,267.5C 451.282,267.109 450.448,267.776 450,269.5C 449.19,275.4 447.69,281.066 445.5,286.5C 445.167,286.5 444.833,286.5 444.5,286.5C 445.15,284.565 445.483,282.565 445.5,280.5C 448.582,264.96 449.249,249.294 447.5,233.5C 448.29,234.609 448.79,235.942 449,237.5C 449.192,235.423 449.692,233.423 450.5,231.5C 451.281,232.729 451.781,234.062 452,235.5C 452.333,235.167 452.667,234.833 453,234.5C 453.085,236.085 453.251,237.418 453.5,238.5C 454.298,236.922 454.798,235.256 455,233.5C 456.816,235.441 458.816,236.108 461,235.5C 461.333,234.833 461.667,234.167 462,233.5C 462.21,235.058 462.71,236.391 463.5,237.5 Z"/></g>
<g><path style="opacity:1" fill="#201f1d" d="M 131.5,226.5 C 137.867,231.537 143.201,237.537 147.5,244.5C 156.6,253.35 164.267,263.35 170.5,274.5C 170.376,275.107 170.043,275.44 169.5,275.5C 157.877,261.373 146.044,247.373 134,233.5C 132.097,231.559 131.264,229.226 131.5,226.5 Z"/></g>
<g><path style="opacity:0.951" fill="#1c1a1c" d="M 167.5,164.5 C 168.167,164.5 168.833,164.5 169.5,164.5C 169.5,194.167 169.5,223.833 169.5,253.5C 169.665,256.518 169.498,259.518 169,262.5C 168.617,261.944 168.117,261.611 167.5,261.5C 166.37,259.685 165.704,257.685 165.5,255.5C 166.117,255.611 166.617,255.944 167,256.5C 167.167,255.333 167.333,254.167 167.5,253C 167.089,223.608 167.089,194.108 167.5,164.5 Z"/></g>
<g><path style="opacity:1" fill="#908d8e" d="M 195.5,233.5 C 196.222,233.918 196.722,234.584 197,235.5C 198.011,234.663 199.178,234.33 200.5,234.5C 200.5,235.5 200.5,236.5 200.5,237.5C 213,237.412 225.666,237.412 238.5,237.5C 238.34,239.199 238.506,240.866 239,242.5C 239.495,240.527 239.662,238.527 239.5,236.5C 229.5,236.5 219.5,236.5 209.5,236.5C 210.263,235.732 211.263,235.232 212.5,235C 211.906,234.536 211.239,234.369 210.5,234.5C 220.61,234.413 230.944,234.413 241.5,234.5C 241.421,235.93 241.754,237.264 242.5,238.5C 242.113,241.238 241.113,243.572 239.5,245.5C 233.926,243.547 227.926,242.88 221.5,243.5C 216.5,243.5 211.5,243.5 206.5,243.5C 206.666,252.173 206.5,260.84 206,269.5C 205.667,268.833 205.333,268.167 205,267.5C 203.89,269.037 202.39,269.703 200.5,269.5C 198.834,272.231 197.168,274.897 195.5,277.5C 195.5,262.833 195.5,248.167 195.5,233.5 Z"/></g>
<g><path style="opacity:0.192" fill="#1e1718" d="M 221.5,243.5 C 227.926,242.88 233.926,243.547 239.5,245.5C 229.5,245.5 219.5,245.5 209.5,245.5C 213.5,244.833 217.5,244.167 221.5,243.5 Z"/></g>
<g><path style="opacity:1" fill="#726e70" d="M 366.5,252.5 C 367.338,252.842 367.672,253.508 367.5,254.5C 363.989,255.426 360.656,255.76 357.5,255.5C 360.379,256.803 361.045,258.803 359.5,261.5C 360.077,263.789 361.077,264.955 362.5,265C 361.542,268.163 361.375,271.33 362,274.5C 361.623,273.058 360.79,272.058 359.5,271.5C 355.497,261.155 351.497,250.821 347.5,240.5C 347.369,239.761 347.536,239.094 348,238.5C 349.011,239.337 350.178,239.67 351.5,239.5C 351.201,241.604 351.534,243.604 352.5,245.5C 354.465,248.12 355.965,247.786 357,244.5C 357.333,242.167 357.667,239.833 358,237.5C 360.53,242.762 362.864,248.095 365,253.5C 365.383,252.944 365.883,252.611 366.5,252.5 Z"/></g>
<g><path style="opacity:0.929" fill="#b9b8b6" d="M 97.5,185.5 C 100.976,184.357 104.642,184.19 108.5,185C 127.866,208.247 146.866,231.747 165.5,255.5C 165.704,257.685 166.37,259.685 167.5,261.5C 156.699,249.24 146.365,236.573 136.5,223.5C 127.19,211.852 117.857,200.186 108.5,188.5C 105.916,187.607 103.249,187.274 100.5,187.5C 100.5,194.167 100.5,200.833 100.5,207.5C 100.822,213.358 100.489,219.025 99.5,224.5C 100.148,211.124 99.4809,198.124 97.5,185.5 Z"/></g>
<g><path style="opacity:1" fill="#615e5f" d="M 335.5,236.5 C 328.533,252.361 321.533,268.361 314.5,284.5C 313.349,285.731 312.183,285.731 311,284.5C 309.727,281.511 308.561,278.511 307.5,275.5C 309.052,273.965 310.385,272.131 311.5,270C 311.043,269.586 310.709,269.086 310.5,268.5C 311.689,267.571 313.022,267.238 314.5,267.5C 314.351,266.448 314.517,265.448 315,264.5C 315.893,265.711 316.726,265.711 317.5,264.5C 319.796,259.581 321.796,254.581 323.5,249.5C 324.837,248.685 325.837,247.518 326.5,246C 328.101,245.727 329.601,245.227 331,244.5C 332.274,241.609 333.774,238.942 335.5,236.5 Z"/></g>
<g><path style="opacity:0.744" fill="#626162" d="M 109.5,207.5 C 108.637,206.537 107.97,206.537 107.5,207.5C 108.526,232.791 108.526,258.125 107.5,283.5C 106.883,283.389 106.383,283.056 106,282.5C 105.832,274.147 105.332,265.813 104.5,257.5C 103.481,258.687 102.314,259.687 101,260.5C 100.667,267.5 100.333,274.5 100,281.5C 99.5001,270.172 99.3335,258.838 99.5,247.5C 100.486,243.03 100.819,238.363 100.5,233.5C 101.5,233.5 102.5,233.5 103.5,233.5C 102.213,236.43 102.713,238.763 105,240.5C 105.333,245.5 105.667,250.5 106,255.5C 106.5,238.503 106.667,221.503 106.5,204.5C 106.369,203.761 106.536,203.094 107,202.5C 108.094,204.078 108.928,205.745 109.5,207.5 Z"/></g>
<g><path style="opacity:1" fill="#5a5859" d="M 63.5,210.5 C 58.0589,226.899 56.7255,243.566 59.5,260.5C 58.8333,261.5 58.1667,262.5 57.5,263.5C 56.7784,263.082 56.2784,262.416 56,261.5C 55.6244,265.918 56.1244,270.251 57.5,274.5C 56.7542,275.736 56.4208,277.07 56.5,278.5C 55.198,275.875 53.8647,275.875 52.5,278.5C 53.8333,279.5 53.8333,280.5 52.5,281.5C 53.6399,283.473 54.9733,285.307 56.5,287C 54.6533,289.518 54.32,292.185 55.5,295C 55.1639,296.03 54.4972,296.53 53.5,296.5C 50.0423,289.128 47.3756,281.461 45.5,273.5C 46.9311,273.119 47.7645,272.119 48,270.5C 48.6667,271.833 49.3333,271.833 50,270.5C 50.6098,266.614 52.2765,263.28 55,260.5C 55.2787,251.141 55.7787,241.808 56.5,232.5C 57.237,227.418 58.4037,222.418 60,217.5C 60.6156,214.182 61.7823,211.848 63.5,210.5 Z"/></g>
<g><path style="opacity:1" fill="#afaca9" d="M 387.5,222.5 C 382.722,236.609 376.888,250.276 370,263.5C 369.833,263 369.667,262.5 369.5,262C 371.157,258.194 372.49,254.36 373.5,250.5C 378.167,241.167 382.833,231.833 387.5,222.5 Z"/></g>
<g><path style="opacity:0.992" fill="#423d3e" d="M 323.5,245.5 C 323.5,246.833 323.5,248.167 323.5,249.5C 321.041,253.738 318.541,258.072 316,262.5C 315.833,261.667 315.667,260.833 315.5,260C 316.074,258.393 316.74,256.893 317.5,255.5C 319.105,251.903 321.105,248.569 323.5,245.5 Z"/></g>
<g><path style="opacity:1" fill="#605d5f" d="M 392.5,221.5 C 389.872,227.751 387.538,234.084 385.5,240.5C 379.948,255.374 373.948,270.04 367.5,284.5C 366.132,285.594 364.965,285.26 364,283.5C 362.765,279.369 361.265,275.369 359.5,271.5C 360.79,272.058 361.623,273.058 362,274.5C 361.375,271.33 361.542,268.163 362.5,265C 361.077,264.955 360.077,263.789 359.5,261.5C 361.045,258.803 360.379,256.803 357.5,255.5C 360.656,255.76 363.989,255.426 367.5,254.5C 367.783,255.289 368.283,255.956 369,256.5C 370.363,254.316 371.863,252.316 373.5,250.5C 372.49,254.36 371.157,258.194 369.5,262C 369.667,262.5 369.833,263 370,263.5C 376.888,250.276 382.722,236.609 387.5,222.5C 388.885,221.426 390.051,220.093 391,218.5C 391.232,219.737 391.732,220.737 392.5,221.5 Z"/></g>
<g><path style="opacity:1" fill="#747273" d="M 314.5,254.5 C 315.391,255.11 316.391,255.443 317.5,255.5C 316.74,256.893 316.074,258.393 315.5,260C 315.667,260.833 315.833,261.667 316,262.5C 318.541,258.072 321.041,253.738 323.5,249.5C 321.796,254.581 319.796,259.581 317.5,264.5C 316.726,265.711 315.893,265.711 315,264.5C 314.517,265.448 314.351,266.448 314.5,267.5C 313.022,267.238 311.689,267.571 310.5,268.5C 310.709,269.086 311.043,269.586 311.5,270C 310.385,272.131 309.052,273.965 307.5,275.5C 302.559,261.676 297.225,248.009 291.5,234.5C 292.79,235.058 293.623,236.058 294,237.5C 294.333,236.167 294.667,234.833 295,233.5C 295.752,236.718 296.252,239.718 296.5,242.5C 297.799,241.91 298.632,240.91 299,239.5C 299.718,240.451 300.551,240.617 301.5,240C 300.346,239.086 300.513,238.253 302,237.5C 302.324,239.569 303.158,239.902 304.5,238.5C 307.787,243.41 310.287,248.743 312,254.5C 312.77,255.598 313.603,255.598 314.5,254.5 Z"/></g>
<g><path style="opacity:0.995" fill="#5c5b5b" d="M 176.5,167.5 C 177.498,199.996 177.832,232.662 177.5,265.5C 177.5,272.167 177.5,278.833 177.5,285.5C 174.144,286.138 172.144,284.804 171.5,281.5C 172.239,281.631 172.906,281.464 173.5,281C 172.035,279.226 170.702,277.392 169.5,275.5C 170.043,275.44 170.376,275.107 170.5,274.5C 164.267,263.35 156.6,253.35 147.5,244.5C 149.028,244.483 149.528,243.816 149,242.5C 144.667,237.167 140.333,231.833 136,226.5C 135.26,225.251 135.427,224.251 136.5,223.5C 146.365,236.573 156.699,249.24 167.5,261.5C 167.709,262.922 168.209,264.255 169,265.5C 169.928,263.693 171.094,262.026 172.5,260.5C 171.089,258.983 171.256,257.649 173,256.5C 173.667,257.833 174.333,257.833 175,256.5C 175.333,257.833 175.667,259.167 176,260.5C 176.5,253.508 176.666,246.508 176.5,239.5C 176.5,215.5 176.5,191.5 176.5,167.5 Z"/></g>
<g><path style="opacity:1" fill="#7f7d7e" d="M 176.5,239.5 C 176.666,246.508 176.5,253.508 176,260.5C 175.667,259.167 175.333,257.833 175,256.5C 174.333,257.833 173.667,257.833 173,256.5C 171.256,257.649 171.089,258.983 172.5,260.5C 171.094,262.026 169.928,263.693 169,265.5C 168.209,264.255 167.709,262.922 167.5,261.5C 168.117,261.611 168.617,261.944 169,262.5C 169.498,259.518 169.665,256.518 169.5,253.5C 170.135,245.618 170.968,237.618 172,229.5C 172.667,228.833 173.333,228.167 174,227.5C 174.944,231.609 175.778,235.609 176.5,239.5 Z"/></g>
<g><path style="opacity:1" fill="#575759" d="M 463.5,258.5 C 464.035,266.868 462.702,274.868 459.5,282.5C 458.883,282.389 458.383,282.056 458,281.5C 456.457,286.633 454.623,291.633 452.5,296.5C 451.448,296.649 450.448,296.483 449.5,296C 449.531,293.613 450.197,291.113 451.5,288.5C 450.975,287.808 450.308,287.308 449.5,287C 450.269,283.913 451.602,281.08 453.5,278.5C 452.456,276.232 452.289,273.899 453,271.5C 453.333,272.833 453.667,274.167 454,275.5C 454.497,273.19 454.663,270.857 454.5,268.5C 455.473,266.75 456.807,265.25 458.5,264C 457.289,263.107 457.289,262.274 458.5,261.5C 459.167,262.5 459.833,263.5 460.5,264.5C 461.774,261.633 462.607,258.633 463,255.5C 463.483,256.448 463.649,257.448 463.5,258.5 Z"/></g>
<g><path style="opacity:0.8" fill="#8b8789" d="M 208.5,250.5 C 208.5,257.833 208.5,265.167 208.5,272.5C 223.504,272.667 238.504,272.5 253.5,272C 256.713,271.394 259.713,270.227 262.5,268.5C 264.58,266.411 266.913,264.744 269.5,263.5C 271.909,264.305 272.576,265.638 271.5,267.5C 271.565,267.062 271.399,266.728 271,266.5C 270.148,267.571 269.315,268.571 268.5,269.5C 268.631,268.761 268.464,268.094 268,267.5C 265.177,270.825 261.677,272.992 257.5,274C 240.837,274.5 224.17,274.667 207.5,274.5C 207.174,266.316 207.508,258.316 208.5,250.5 Z"/></g>
<g><path style="opacity:1" fill="#5c5959" d="M 221.5,243.5 C 217.5,244.167 213.5,244.833 209.5,245.5C 208.549,246.919 208.216,248.585 208.5,250.5C 207.508,258.316 207.174,266.316 207.5,274.5C 205.969,275.925 206.302,276.591 208.5,276.5C 210.042,277.163 211.709,277.83 213.5,278.5C 212.224,279.645 210.891,279.645 209.5,278.5C 207.991,280.424 205.991,281.591 203.5,282C 222.842,282.833 242.175,282.666 261.5,281.5C 264.866,278.101 267.199,274.101 268.5,269.5C 269.315,268.571 270.148,267.571 271,266.5C 271.399,266.728 271.565,267.062 271.5,267.5C 270.303,271.251 268.803,274.918 267,278.5C 265.337,280.917 263.171,282.75 260.5,284C 238.663,284.829 216.996,284.663 195.5,283.5C 195.5,281.5 195.5,279.5 195.5,277.5C 197.168,274.897 198.834,272.231 200.5,269.5C 202.39,269.703 203.89,269.037 205,267.5C 205.333,268.167 205.667,268.833 206,269.5C 206.5,260.84 206.666,252.173 206.5,243.5C 211.5,243.5 216.5,243.5 221.5,243.5 Z"/></g>
<g><path style="opacity:1" fill="#777676" d="M 268.5,269.5 C 267.199,274.101 264.866,278.101 261.5,281.5C 242.175,282.666 222.842,282.833 203.5,282C 205.991,281.591 207.991,280.424 209.5,278.5C 210.891,279.645 212.224,279.645 213.5,278.5C 211.709,277.83 210.042,277.163 208.5,276.5C 223.17,276.667 237.837,276.5 252.5,276C 258.823,276.064 264.156,273.897 268.5,269.5 Z"/></g>
<g><path style="opacity:1" fill="#c7c4c5" d="M 268.5,269.5 C 264.156,273.897 258.823,276.064 252.5,276C 237.837,276.5 223.17,276.667 208.5,276.5C 206.302,276.591 205.969,275.925 207.5,274.5C 224.17,274.667 240.837,274.5 257.5,274C 261.677,272.992 265.177,270.825 268,267.5C 268.464,268.094 268.631,268.761 268.5,269.5 Z"/></g>
<g><path style="opacity:1" fill="#555554" d="M 57.5,263.5 C 61.4806,288.461 72.1473,310.128 89.5,328.5C 97.1941,336.316 105.194,343.649 113.5,350.5C 113.631,351.239 113.464,351.906 113,352.5C 111.644,351.62 110.144,351.286 108.5,351.5C 105.662,350.051 102.828,348.385 100,346.5C 100.36,343.002 98.5262,341.002 94.5,340.5C 92.8276,336.86 90.8276,333.526 88.5,330.5C 88.2514,331.582 88.0848,332.915 88,334.5C 86.2432,331.088 83.4098,329.255 79.5,329C 78.7511,327.266 78.2511,325.433 78,323.5C 76.5,322.667 75.3333,321.5 74.5,320C 69.6432,319.786 68.8099,321.286 72,324.5C 72.9138,323.346 73.7471,323.513 74.5,325C 73.7476,325.671 73.4142,326.504 73.5,327.5C 69.8944,324.976 67.2277,321.643 65.5,317.5C 68.034,314.725 68.034,311.725 65.5,308.5C 66.6868,306.025 66.3535,303.691 64.5,301.5C 63.3966,301.002 62.3966,300.669 61.5,300.5C 62.09,299.201 63.09,298.368 64.5,298C 63.2161,297.316 62.0495,297.483 61,298.5C 60.0502,292.939 58.8836,287.439 57.5,282C 57.5852,280.893 57.9186,279.893 58.5,279C 57.9056,278.536 57.2389,278.369 56.5,278.5C 56.4208,277.07 56.7542,275.736 57.5,274.5C 56.1244,270.251 55.6244,265.918 56,261.5C 56.2784,262.416 56.7784,263.082 57.5,263.5 Z"/></g>
<g><path style="opacity:1" fill="#595858" d="M 56.5,278.5 C 57.2389,278.369 57.9056,278.536 58.5,279C 57.9186,279.893 57.5852,280.893 57.5,282C 58.8836,287.439 60.0502,292.939 61,298.5C 62.0495,297.483 63.2161,297.316 64.5,298C 63.09,298.368 62.09,299.201 61.5,300.5C 62.3966,300.669 63.3966,301.002 64.5,301.5C 66.3535,303.691 66.6868,306.025 65.5,308.5C 68.034,311.725 68.034,314.725 65.5,317.5C 60.7308,310.964 56.7308,303.964 53.5,296.5C 54.4972,296.53 55.1639,296.03 55.5,295C 54.32,292.185 54.6533,289.518 56.5,287C 54.9733,285.307 53.6399,283.473 52.5,281.5C 53.8333,280.5 53.8333,279.5 52.5,278.5C 53.8647,275.875 55.198,275.875 56.5,278.5 Z"/></g>
<g><path style="opacity:1" fill="#595958" d="M 454.5,268.5 C 454.663,270.857 454.497,273.19 454,275.5C 453.667,274.167 453.333,272.833 453,271.5C 452.289,273.899 452.456,276.232 453.5,278.5C 451.602,281.08 450.269,283.913 449.5,287C 450.308,287.308 450.975,287.808 451.5,288.5C 450.197,291.113 449.531,293.613 449.5,296C 450.448,296.483 451.448,296.649 452.5,296.5C 450.199,301.765 447.366,306.765 444,311.5C 443.667,310.833 443.333,310.167 443,309.5C 442.333,310.833 441.667,312.167 441,313.5C 439.475,313.112 437.808,313.112 436,313.5C 435.722,312.584 435.222,311.918 434.5,311.5C 436.402,307.363 438.569,303.363 441,299.5C 442.521,295.135 444.021,290.802 445.5,286.5C 447.69,281.066 449.19,275.4 450,269.5C 450.448,267.776 451.282,267.109 452.5,267.5C 452.291,266.914 451.957,266.414 451.5,266C 453.489,265.481 454.489,266.314 454.5,268.5 Z"/></g>
<g><path style="opacity:0.078" fill="#bdb8b5" d="M 415.5,302.5 C 309.335,301.501 203.001,301.167 96.5,301.5C 96.4142,300.504 96.7476,299.671 97.5,299C 203.5,298.333 309.5,298.333 415.5,299C 416.791,300.292 416.791,301.458 415.5,302.5 Z"/></g>
<g><path style="opacity:1" fill="#b3b1af" d="M 444.5,286.5 C 444.833,286.5 445.167,286.5 445.5,286.5C 444.021,290.802 442.521,295.135 441,299.5C 438.569,303.363 436.402,307.363 434.5,311.5C 433.599,312.29 432.932,313.29 432.5,314.5C 429.209,319.127 425.542,323.46 421.5,327.5C 431.207,315.089 438.874,301.423 444.5,286.5 Z"/></g>
<g><path style="opacity:0.118" fill="#504844" d="M 96.5,301.5 C 203.001,301.167 309.335,301.501 415.5,302.5C 309.667,303.666 203.667,303.833 97.5,303C 96.944,302.617 96.6107,302.117 96.5,301.5 Z"/></g>
<g><path style="opacity:0.671" fill="#9d989a" d="M 245.5,336.5 C 245.5,335.833 245.167,335.5 244.5,335.5C 246.192,326.368 242.526,320.868 233.5,319C 229.848,318.501 226.182,318.335 222.5,318.5C 222.5,327.167 222.5,335.833 222.5,344.5C 221.67,336.01 221.17,327.343 221,318.5C 220.617,319.056 220.117,319.389 219.5,319.5C 219.577,318.25 220.244,317.417 221.5,317C 228.454,316.231 235.121,317.231 241.5,320C 246.188,324.761 247.521,330.261 245.5,336.5 Z"/></g>
<g><path style="opacity:0.239" fill="#939092" d="M 378.5,323.5 C 374.285,321.564 369.619,320.897 364.5,321.5C 369.017,320.834 373.683,320.167 378.5,319.5C 372.68,318.184 367.013,318.184 361.5,319.5C 360.041,319.433 358.708,319.766 357.5,320.5C 357.574,318.589 358.574,317.422 360.5,317C 366.5,316.333 372.5,316.333 378.5,317C 381.037,319.201 381.037,321.368 378.5,323.5 Z"/></g>
<g><path style="opacity:0.098" fill="#8d8588" d="M 346.5,325.5 C 346.5,324.833 346.5,324.167 346.5,323.5C 347.376,323.631 348.043,323.298 348.5,322.5C 343.399,318.254 337.732,317.421 331.5,320C 328.977,321.36 326.977,323.193 325.5,325.5C 324.833,325.5 324.167,325.5 323.5,325.5C 326.668,319.738 331.668,316.738 338.5,316.5C 344.381,316.437 348.714,318.937 351.5,324C 349.967,325.808 348.3,326.308 346.5,325.5 Z"/></g>
<g><path style="opacity:1" fill="#d2c8cb" d="M 346.5,323.5 C 338.827,318.701 332.493,320.034 327.5,327.5C 326.833,327.5 326.167,327.5 325.5,327.5C 325.5,326.833 325.5,326.167 325.5,325.5C 326.977,323.193 328.977,321.36 331.5,320C 337.732,317.421 343.399,318.254 348.5,322.5C 348.043,323.298 347.376,323.631 346.5,323.5 Z"/></g>
<g><path style="opacity:0.212" fill="#372a2b" d="M 346.5,323.5 C 346.5,324.167 346.5,324.833 346.5,325.5C 343.869,324.522 341.202,323.522 338.5,322.5C 333.6,323.068 330.6,325.735 329.5,330.5C 328.732,331.263 328.232,332.263 328,333.5C 327.505,331.527 327.338,329.527 327.5,327.5C 332.493,320.034 338.827,318.701 346.5,323.5 Z"/></g>
<g><path style="opacity:0.396" fill="#201719" d="M 364.5,321.5 C 369.619,320.897 374.285,321.564 378.5,323.5C 374.613,323.699 370.613,323.866 366.5,324C 366.167,324.333 365.833,324.667 365.5,325C 366.381,325.708 367.047,326.542 367.5,327.5C 366.167,327.5 365.5,328.167 365.5,329.5C 364.527,327.052 364.194,324.385 364.5,321.5 Z"/></g>
<g><path style="opacity:0.984" fill="#474345" d="M 459.5,282.5 C 450.449,310.904 433.782,333.904 409.5,351.5C 417.113,344.719 424.28,337.385 431,329.5C 430.905,326.356 431.072,323.356 431.5,320.5C 433.124,320.64 434.29,319.973 435,318.5C 435.889,319.888 436.389,319.722 436.5,318C 436.22,316.605 435.553,315.438 434.5,314.5C 433.571,315.55 432.905,315.55 432.5,314.5C 432.932,313.29 433.599,312.29 434.5,311.5C 435.222,311.918 435.722,312.584 436,313.5C 437.808,313.112 439.475,313.112 441,313.5C 441.667,312.167 442.333,310.833 443,309.5C 443.333,310.167 443.667,310.833 444,311.5C 447.366,306.765 450.199,301.765 452.5,296.5C 454.623,291.633 456.457,286.633 458,281.5C 458.383,282.056 458.883,282.389 459.5,282.5 Z"/></g>
<g><path style="opacity:0.394" fill="#9e989a" d="M 305.5,332.5 C 305.146,335.421 306.146,337.754 308.5,339.5C 309.497,332.866 309.83,326.2 309.5,319.5C 309.56,318.957 309.893,318.624 310.5,318.5C 311.498,327.141 311.831,335.808 311.5,344.5C 308.671,344.675 307.004,343.342 306.5,340.5C 305.583,339.873 304.583,339.539 303.5,339.5C 300.589,336.01 297.922,332.344 295.5,328.5C 298.125,330.946 300.958,333.279 304,335.5C 304.667,334.833 304.667,334.167 304,333.5C 299.952,329.12 296.285,324.454 293,319.5C 291.989,318.663 290.822,318.33 289.5,318.5C 288.833,318.5 288.167,318.5 287.5,318.5C 289.581,316.1 291.914,315.934 294.5,318C 297.999,322.994 301.666,327.827 305.5,332.5 Z"/></g>
<g><path style="opacity:0.125" fill="#383333" d="M 204.5,317.5 C 204.5,326.833 204.5,336.167 204.5,345.5C 205.5,345.5 206.5,345.5 207.5,345.5C 207.5,346.167 207.5,346.833 207.5,347.5C 203.705,348.041 201.705,346.375 201.5,342.5C 202.833,335.5 202.833,328.5 201.5,321.5C 201.561,319.347 202.561,318.014 204.5,317.5 Z"/></g>
<g><path style="opacity:1" fill="#c5bfc0" d="M 289.5,318.5 C 290.822,318.33 291.989,318.663 293,319.5C 296.285,324.454 299.952,329.12 304,333.5C 304.667,334.167 304.667,334.833 304,335.5C 300.958,333.279 298.125,330.946 295.5,328.5C 295.716,326.319 294.883,324.653 293,323.5C 292.5,330.826 292.334,338.159 292.5,345.5C 291.5,345.5 290.5,345.5 289.5,345.5C 289.5,336.5 289.5,327.5 289.5,318.5 Z"/></g>
<g><path style="opacity:0.773" fill="#51494f" d="M 139.5,317.5 C 135.262,319.901 131.762,323.234 129,327.5C 128.333,330.167 128.333,332.833 129,335.5C 130.122,337.407 130.955,339.407 131.5,341.5C 130.115,340.426 128.949,339.093 128,337.5C 124.941,326.596 128.774,319.929 139.5,317.5 Z"/></g>
<g><path style="opacity:0.975" fill="#382d2e" d="M 307.5,318.5 C 308.167,318.833 308.833,319.167 309.5,319.5C 309.83,326.2 309.497,332.866 308.5,339.5C 306.146,337.754 305.146,335.421 305.5,332.5C 306.167,327.833 306.833,323.167 307.5,318.5 Z"/></g>
<g><path style="opacity:1" fill="#555454" d="M 432.5,314.5 C 432.905,315.55 433.571,315.55 434.5,314.5C 435.553,315.438 436.22,316.605 436.5,318C 436.389,319.722 435.889,319.888 435,318.5C 434.29,319.973 433.124,320.64 431.5,320.5C 431.072,323.356 430.905,326.356 431,329.5C 424.28,337.385 417.113,344.719 409.5,351.5C 404.473,355.853 399.14,359.853 393.5,363.5C 392.127,363.657 390.793,363.49 389.5,363C 395.053,359.064 400.387,354.897 405.5,350.5C 405.167,350.167 404.833,349.833 404.5,349.5C 392.614,358.717 379.947,366.717 366.5,373.5C 365.583,372.873 364.583,372.539 363.5,372.5C 368.63,369.598 373.963,366.765 379.5,364C 380.381,363.292 381.047,362.458 381.5,361.5C 386.322,360.002 390.322,357.336 393.5,353.5C 397.643,351.772 400.976,349.106 403.5,345.5C 409.833,341.167 415.167,335.833 419.5,329.5C 419.5,328.167 420.167,327.5 421.5,327.5C 425.542,323.46 429.209,319.127 432.5,314.5 Z"/></g>
<g><path style="opacity:1" fill="#b9b6b5" d="M 207.5,317.5 C 207.5,326.833 207.5,336.167 207.5,345.5C 206.5,345.5 205.5,345.5 204.5,345.5C 204.5,336.167 204.5,326.833 204.5,317.5C 205.5,316.167 206.5,316.167 207.5,317.5 Z"/></g>
<g><path style="opacity:1" fill="#3d3739" d="M 361.5,319.5 C 361.5,327.833 361.5,336.167 361.5,344.5C 367.167,344.5 372.833,344.5 378.5,344.5C 372.69,345.49 366.69,345.823 360.5,345.5C 360.666,337.16 360.5,328.827 360,320.5C 359.829,328.344 359.329,336.011 358.5,343.5C 357.737,335.858 357.403,328.191 357.5,320.5C 358.708,319.766 360.041,319.433 361.5,319.5 Z"/></g>
<g><path style="opacity:0.125" fill="#433c3b" d="M 166.5,318.5 C 167.117,318.611 167.617,318.944 168,319.5C 168.333,326.167 168.667,332.833 169,339.5C 173.197,345.471 178.697,346.971 185.5,344C 187.049,342.786 188.215,341.286 189,339.5C 189.333,332.833 189.667,326.167 190,319.5C 190.383,318.944 190.883,318.611 191.5,318.5C 191.901,326.585 191.401,334.585 190,342.5C 182.388,349.27 175.055,348.937 168,341.5C 165.87,333.628 165.37,325.961 166.5,318.5 Z"/></g>
<g><path style="opacity:0.38" fill="#403c3e" d="M 445.5,280.5 C 445.483,282.565 445.15,284.565 444.5,286.5C 438.874,301.423 431.207,315.089 421.5,327.5C 420.167,327.5 419.5,328.167 419.5,329.5C 413.833,334.5 408.5,339.833 403.5,345.5C 400.518,347.474 397.518,349.474 394.5,351.5C 393.833,351.5 393.5,351.167 393.5,350.5C 408.926,338.241 422.093,323.907 433,307.5C 437.489,298.479 441.656,289.479 445.5,280.5 Z"/></g>
<g><path style="opacity:0.804" fill="#312c2e" d="M 323.5,325.5 C 324.167,325.5 324.833,325.5 325.5,325.5C 325.5,326.167 325.5,326.833 325.5,327.5C 324.366,329.966 324.199,332.633 325,335.5C 326.257,338.351 327.757,341.018 329.5,343.5C 326.548,342.641 324.715,340.641 324,337.5C 322.444,333.489 322.278,329.489 323.5,325.5 Z"/></g>
<g><path style="opacity:0.451" fill="#5e585b" d="M 295.5,328.5 C 293.851,334.601 292.851,340.935 292.5,347.5C 292.5,346.833 292.5,346.167 292.5,345.5C 292.334,338.159 292.5,330.826 293,323.5C 294.883,324.653 295.716,326.319 295.5,328.5 Z"/></g>
<g><path style="opacity:0.059" fill="#7e7c7c" d="M 207.5,317.5 C 208.827,321.783 209.493,326.449 209.5,331.5C 209.333,336.167 209.167,340.833 209,345.5C 208.722,346.416 208.222,347.082 207.5,347.5C 207.5,346.833 207.5,346.167 207.5,345.5C 207.5,336.167 207.5,326.833 207.5,317.5 Z"/></g>
<g><path style="opacity:1" fill="#d0caca" d="M 244.5,335.5 C 243.931,339.812 241.598,342.646 237.5,344C 232.511,344.499 227.511,344.666 222.5,344.5C 222.5,335.833 222.5,327.167 222.5,318.5C 226.182,318.335 229.848,318.501 233.5,319C 242.526,320.868 246.192,326.368 244.5,335.5 Z M 240.5,334.5 C 239.781,336.091 238.781,337.591 237.5,339C 234.689,339.911 231.856,340.744 229,341.5C 228.055,341.095 227.388,340.428 227,339.5C 226.501,334.845 226.334,330.179 226.5,325.5C 235.163,321.787 239.829,324.787 240.5,334.5 Z"/></g>
<g><path style="opacity:0.237" fill="#716c6e" d="M 225.5,321.5 C 225.232,323.099 225.566,324.432 226.5,325.5C 226.334,330.179 226.501,334.845 227,339.5C 227.388,340.428 228.055,341.095 229,341.5C 231.856,340.744 234.689,339.911 237.5,339C 238.781,337.591 239.781,336.091 240.5,334.5C 240.833,334.5 241.167,334.5 241.5,334.5C 241.22,337.287 239.887,339.453 237.5,341C 233.249,342.195 228.915,342.695 224.5,342.5C 224.175,335.313 224.509,328.313 225.5,321.5 Z"/></g>
<g><path style="opacity:0.216" fill="#2f2a28" d="M 225.5,321.5 C 236.532,319.306 241.866,323.64 241.5,334.5C 241.167,334.5 240.833,334.5 240.5,334.5C 239.829,324.787 235.163,321.787 226.5,325.5C 225.566,324.432 225.232,323.099 225.5,321.5 Z"/></g>
<g><path style="opacity:1" fill="#c8c4c4" d="M 259.5,337.5 C 258.4,339.277 257.566,341.277 257,343.5C 255.989,344.337 254.822,344.67 253.5,344.5C 256.07,335.917 259.403,327.584 263.5,319.5C 264.688,318.316 265.855,318.316 267,319.5C 270.841,325.827 273.508,332.494 275,339.5C 274.626,338.584 274.126,337.75 273.5,337C 268.648,336.185 263.981,336.352 259.5,337.5 Z M 264.5,329.5 C 267.388,330.54 267.721,331.873 265.5,333.5C 263.358,332.563 263.024,331.23 264.5,329.5 Z"/></g>
<g><path style="opacity:0.547" fill="#342b2b" d="M 264.5,323.5 C 265.496,323.414 266.329,323.748 267,324.5C 268.467,327.758 269.633,331.092 270.5,334.5C 267.15,334.665 263.817,334.498 260.5,334C 261.695,330.444 263.028,326.944 264.5,323.5 Z M 264.5,329.5 C 263.024,331.23 263.358,332.563 265.5,333.5C 267.721,331.873 267.388,330.54 264.5,329.5 Z"/></g>
<g><path style="opacity:1" fill="#958e91" d="M 325.5,327.5 C 326.167,327.5 326.833,327.5 327.5,327.5C 327.338,329.527 327.505,331.527 328,333.5C 328.232,332.263 328.732,331.263 329.5,330.5C 329.166,336.837 332.166,340.504 338.5,341.5C 341.107,340.863 343.44,339.696 345.5,338C 351.014,336.673 352.681,338.507 350.5,343.5C 350.631,342.624 350.298,341.957 349.5,341.5C 343.239,345.993 336.572,346.659 329.5,343.5C 327.757,341.018 326.257,338.351 325,335.5C 324.199,332.633 324.366,329.966 325.5,327.5 Z"/></g>
<g><path style="opacity:0.424" fill="#281c21" d="M 377.5,333.5 C 374.044,333.646 370.378,333.812 366.5,334C 365.232,336.163 365.232,338.33 366.5,340.5C 365.833,341.167 365.167,341.833 364.5,342.5C 364.5,339.167 364.5,335.833 364.5,332.5C 369.032,332.182 373.366,332.515 377.5,333.5 Z"/></g>
<g><path style="opacity:1" fill="#a9a2a3" d="M 173.5,337.5 C 172.672,331.681 172.172,325.681 172,319.5C 171.333,325.833 171.333,332.167 172,338.5C 172.69,339.738 173.19,339.738 173.5,338.5C 177.78,342.531 181.78,342.198 185.5,337.5C 186.833,331.167 186.833,324.833 185.5,318.5C 187.594,316.006 189.594,316.006 191.5,318.5C 190.883,318.611 190.383,318.944 190,319.5C 189.667,326.167 189.333,332.833 189,339.5C 188.215,341.286 187.049,342.786 185.5,344C 178.697,346.971 173.197,345.471 169,339.5C 168.667,332.833 168.333,326.167 168,319.5C 167.617,318.944 167.117,318.611 166.5,318.5C 168.065,316.281 170.065,315.948 172.5,317.5C 173.497,324.134 173.83,330.8 173.5,337.5 Z"/></g>
<g><path style="opacity:0.522" fill="#323232" d="M 173.5,337.5 C 173.5,337.833 173.5,338.167 173.5,338.5C 173.19,339.738 172.69,339.738 172,338.5C 171.333,332.167 171.333,325.833 172,319.5C 172.172,325.681 172.672,331.681 173.5,337.5 Z"/></g>
<g><path style="opacity:0.636" fill="#342c2d" d="M 185.5,318.5 C 186.833,324.833 186.833,331.167 185.5,337.5C 185.722,331.889 185.056,326.389 183.5,321C 183.639,319.699 184.305,318.866 185.5,318.5 Z"/></g>
<g><path style="opacity:0.959" fill="#a19c9d" d="M 156.5,337.5 C 156.657,336.127 156.49,334.793 156,333.5C 153.716,343.434 147.55,347.267 137.5,345C 135.609,343.558 133.609,342.391 131.5,341.5C 130.955,339.407 130.122,337.407 129,335.5C 128.333,332.833 128.333,330.167 129,327.5C 131.762,323.234 135.262,319.901 139.5,317.5C 151.543,315.524 157.543,320.857 157.5,333.5C 157.489,335.045 157.156,336.378 156.5,337.5 Z M 151.5,327.5 C 149.403,329.482 146.736,330.482 143.5,330.5C 143.157,332.483 143.824,333.817 145.5,334.5C 146.568,335.434 147.901,335.768 149.5,335.5C 149.5,336.833 149.5,338.167 149.5,339.5C 142.838,343.062 137.505,341.729 133.5,335.5C 133.014,325.141 137.681,321.308 147.5,324C 149.027,325.032 150.36,326.199 151.5,327.5 Z"/></g>
<g><path style="opacity:0.796" fill="#403838" d="M 149.5,339.5 C 149.5,338.167 149.5,336.833 149.5,335.5C 147.901,335.768 146.568,335.434 145.5,334.5C 147.764,333.781 150.097,333.448 152.5,333.5C 152.969,336.393 151.969,338.393 149.5,339.5 Z"/></g>
<g><path style="opacity:0.471" fill="#3c3437" d="M 151.5,327.5 C 150.36,326.199 149.027,325.032 147.5,324C 137.681,321.308 133.014,325.141 133.5,335.5C 133.279,338.097 132.779,338.097 132,335.5C 130.533,328.63 133.033,323.796 139.5,321C 145.086,320.084 149.753,321.751 153.5,326C 152.584,326.278 151.918,326.778 151.5,327.5 Z"/></g>
<g><path style="opacity:1" fill="#bab7b9" d="M 419.5,329.5 C 415.167,335.833 409.833,341.167 403.5,345.5C 408.5,339.833 413.833,334.5 419.5,329.5 Z"/></g>
<g><path style="opacity:0.62" fill="#2d2325" d="M 287.5,318.5 C 288.167,318.5 288.833,318.5 289.5,318.5C 289.5,327.5 289.5,336.5 289.5,345.5C 290.5,345.5 291.5,345.5 292.5,345.5C 292.5,346.167 292.5,346.833 292.5,347.5C 290.856,347.714 289.356,347.38 288,346.5C 287.737,338.48 287.237,330.48 286.5,322.5C 286.623,321.075 286.957,319.742 287.5,318.5 Z"/></g>
<g><path style="opacity:0.925" fill="#787075" d="M 367.5,327.5 C 371.056,327.75 374.723,327.917 378.5,328C 380.078,330.339 379.745,332.172 377.5,333.5C 373.366,332.515 369.032,332.182 364.5,332.5C 364.5,335.833 364.5,339.167 364.5,342.5C 363.518,339.038 363.185,335.371 363.5,331.5C 368.214,331.827 372.88,331.493 377.5,330.5C 373.555,329.509 369.555,329.176 365.5,329.5C 365.5,328.167 366.167,327.5 367.5,327.5 Z"/></g>
<g><path style="opacity:0.898" fill="#b1b1ae" d="M 59.5,260.5 C 64.4261,289.722 77.7594,314.556 99.5,335C 107.067,341.081 114.734,346.914 122.5,352.5C 122.062,352.435 121.728,352.601 121.5,353C 122.381,353.708 123.047,354.542 123.5,355.5C 119.921,354.238 116.588,352.571 113.5,350.5C 105.194,343.649 97.1941,336.316 89.5,328.5C 72.1473,310.128 61.4806,288.461 57.5,263.5C 58.1667,262.5 58.8333,261.5 59.5,260.5 Z"/></g>
<g><path style="opacity:0.141" fill="#413b3d" d="M 263.5,317.5 C 263.5,318.167 263.5,318.833 263.5,319.5C 259.403,327.584 256.07,335.917 253.5,344.5C 254.822,344.67 255.989,344.337 257,343.5C 257.566,341.277 258.4,339.277 259.5,337.5C 263.884,337.174 268.217,337.508 272.5,338.5C 273.5,340.5 274.5,342.5 275.5,344.5C 276.689,345.429 278.022,345.762 279.5,345.5C 278.686,347.273 277.352,347.773 275.5,347C 273.629,344.63 271.962,342.13 270.5,339.5C 267.562,338.425 264.562,338.259 261.5,339C 259.732,341.884 257.732,344.551 255.5,347C 253.294,347.732 251.628,347.065 250.5,345C 254.634,337.607 257.801,329.773 260,321.5C 260.74,319.681 261.907,318.348 263.5,317.5 Z"/></g>
<g><path style="opacity:1" fill="#b9b3b5" d="M 364.5,321.5 C 364.194,324.385 364.527,327.052 365.5,329.5C 369.555,329.176 373.555,329.509 377.5,330.5C 372.88,331.493 368.214,331.827 363.5,331.5C 363.185,335.371 363.518,339.038 364.5,342.5C 365.167,341.833 365.833,341.167 366.5,340.5C 371.017,341.166 375.683,341.833 380.5,342.5C 381.777,343.922 381.443,344.922 379.5,345.5C 379.5,344.833 379.167,344.5 378.5,344.5C 372.833,344.5 367.167,344.5 361.5,344.5C 361.5,336.167 361.5,327.833 361.5,319.5C 367.013,318.184 372.68,318.184 378.5,319.5C 373.683,320.167 369.017,320.834 364.5,321.5 Z"/></g>
<g><path style="opacity:0.38" fill="#3c3236" d="M 222.5,344.5 C 227.511,344.666 232.511,344.499 237.5,344C 241.598,342.646 243.931,339.812 244.5,335.5C 245.167,335.5 245.5,335.833 245.5,336.5C 245.342,340.172 243.675,343.005 240.5,345C 233.913,346.657 227.246,347.324 220.5,347C 220.069,337.973 219.736,328.806 219.5,319.5C 220.117,319.389 220.617,319.056 221,318.5C 221.17,327.343 221.67,336.01 222.5,344.5 Z"/></g>
<g><path style="opacity:1" fill="#9c9799" d="M 279.5,345.5 C 278.022,345.762 276.689,345.429 275.5,344.5C 274.5,342.5 273.5,340.5 272.5,338.5C 268.217,337.508 263.884,337.174 259.5,337.5C 263.981,336.352 268.648,336.185 273.5,337C 274.126,337.75 274.626,338.584 275,339.5C 273.508,332.494 270.841,325.827 267,319.5C 265.855,318.316 264.688,318.316 263.5,319.5C 263.5,318.833 263.5,318.167 263.5,317.5C 265.489,316.113 267.322,316.447 269,318.5C 271.961,326.071 275.294,333.404 279,340.5C 279.494,342.134 279.66,343.801 279.5,345.5 Z"/></g>
<g><path style="opacity:0.31" fill="#686365" d="M 303.5,339.5 C 304.583,339.539 305.583,339.873 306.5,340.5C 307.004,343.342 308.671,344.675 311.5,344.5C 311.831,335.808 311.498,327.141 310.5,318.5C 309.893,318.624 309.56,318.957 309.5,319.5C 308.833,319.167 308.167,318.833 307.5,318.5C 309.534,315.894 311.701,315.894 314,318.5C 313.756,328.144 313.589,337.811 313.5,347.5C 311.345,347.628 309.345,347.128 307.5,346C 306.281,343.722 304.948,341.555 303.5,339.5 Z"/></g>
<g><path style="opacity:1" fill="#5f5b5d" d="M 108.5,351.5 C 108.33,352.822 108.663,353.989 109.5,355C 107.563,355.122 106.23,355.955 105.5,357.5C 92.5914,349.926 81.9248,339.926 73.5,327.5C 73.4142,326.504 73.7476,325.671 74.5,325C 73.7471,323.513 72.9138,323.346 72,324.5C 68.8099,321.286 69.6432,319.786 74.5,320C 75.3333,321.5 76.5,322.667 78,323.5C 78.2511,325.433 78.7511,327.266 79.5,329C 83.4098,329.255 86.2432,331.088 88,334.5C 88.0848,332.915 88.2514,331.582 88.5,330.5C 90.8276,333.526 92.8276,336.86 94.5,340.5C 98.5262,341.002 100.36,343.002 100,346.5C 102.828,348.385 105.662,350.051 108.5,351.5 Z"/></g>
<g><path style="opacity:0.306" fill="#3c3736" d="M 156.5,337.5 C 154.392,344.229 149.725,347.563 142.5,347.5C 137.764,347.301 134.097,345.301 131.5,341.5C 133.609,342.391 135.609,343.558 137.5,345C 147.55,347.267 153.716,343.434 156,333.5C 156.49,334.793 156.657,336.127 156.5,337.5 Z"/></g>
<g><path style="opacity:0.573" fill="#35262a" d="M 350.5,343.5 C 343.388,348.775 336.388,348.775 329.5,343.5C 336.572,346.659 343.239,345.993 349.5,341.5C 350.298,341.957 350.631,342.624 350.5,343.5 Z"/></g>
<g><path style="opacity:0.484" fill="#0f060a" d="M 378.5,344.5 C 379.167,344.5 379.5,344.833 379.5,345.5C 377.695,347.197 375.361,348.03 372.5,348C 368.833,348.667 365.167,348.667 361.5,348C 359.883,346.908 358.883,345.408 358.5,343.5C 359.329,336.011 359.829,328.344 360,320.5C 360.5,328.827 360.666,337.16 360.5,345.5C 366.69,345.823 372.69,345.49 378.5,344.5 Z"/></g>
<g><path style="opacity:1" fill="#bebbbe" d="M 403.5,345.5 C 400.976,349.106 397.643,351.772 393.5,353.5C 393.833,352.833 394.167,352.167 394.5,351.5C 397.518,349.474 400.518,347.474 403.5,345.5 Z"/></g>
<g><path style="opacity:0.659" fill="#666266" d="M 393.5,350.5 C 393.5,351.167 393.833,351.5 394.5,351.5C 394.167,352.167 393.833,352.833 393.5,353.5C 389.148,355.673 385.148,358.34 381.5,361.5C 377.038,363.957 372.372,365.957 367.5,367.5C 376.411,362.265 385.078,356.598 393.5,350.5 Z"/></g>
<g><path style="opacity:1" fill="#686866" d="M 113.5,350.5 C 116.588,352.571 119.921,354.238 123.5,355.5C 131.477,361.495 140.144,366.495 149.5,370.5C 149.189,371.478 148.522,372.145 147.5,372.5C 143.723,371.862 139.723,371.695 135.5,372C 137.432,375.437 140.099,377.937 143.5,379.5C 129.619,374.212 116.953,366.879 105.5,357.5C 106.23,355.955 107.563,355.122 109.5,355C 108.663,353.989 108.33,352.822 108.5,351.5C 110.144,351.286 111.644,351.62 113,352.5C 113.464,351.906 113.631,351.239 113.5,350.5 Z"/></g>
<g><path style="opacity:1" fill="#c4c2c5" d="M 393.5,353.5 C 390.322,357.336 386.322,360.002 381.5,361.5C 385.148,358.34 389.148,355.673 393.5,353.5 Z"/></g>
<g><path style="opacity:1" fill="#272526" d="M 393.5,363.5 C 383.093,371.039 371.76,377.039 359.5,381.5C 359.5,380.833 359.5,380.167 359.5,379.5C 356.951,379.387 354.618,380.054 352.5,381.5C 352.167,380.833 351.833,380.167 351.5,379.5C 330.125,387.976 308.125,392.309 285.5,392.5C 287.735,392.795 289.735,392.461 291.5,391.5C 316.523,388.911 340.523,382.578 363.5,372.5C 364.583,372.539 365.583,372.873 366.5,373.5C 379.947,366.717 392.614,358.717 404.5,349.5C 404.833,349.833 405.167,350.167 405.5,350.5C 400.387,354.897 395.053,359.064 389.5,363C 390.793,363.49 392.127,363.657 393.5,363.5 Z"/></g>
<g><path style="opacity:0.937" fill="#7d7b7b" d="M 359.5,379.5 C 360.987,378.196 362.654,377.03 364.5,376C 369.498,373.656 374.498,371.656 379.5,370C 373.195,373.986 366.528,377.153 359.5,379.5 Z"/></g>
<g><path style="opacity:1" fill="#8c8a88" d="M 149.5,370.5 C 164.654,377.44 180.321,382.773 196.5,386.5C 194.103,389.112 191.603,389.112 189,386.5C 187.27,387.649 185.604,387.649 184,386.5C 183.626,387.416 183.126,388.25 182.5,389C 180.1,389.186 177.766,389.686 175.5,390.5C 179.21,391.395 182.877,392.395 186.5,393.5C 188.044,393.21 189.377,392.544 190.5,391.5C 193.167,392.833 195.833,392.833 198.5,391.5C 197.984,392.758 198.65,393.758 200.5,394.5C 200.137,395.183 199.804,395.85 199.5,396.5C 198.167,396.5 196.833,396.5 195.5,396.5C 177.116,393.581 159.783,387.915 143.5,379.5C 140.099,377.937 137.432,375.437 135.5,372C 139.723,371.695 143.723,371.862 147.5,372.5C 148.522,372.145 149.189,371.478 149.5,370.5 Z"/></g>
<g><path style="opacity:0.984" fill="#d8d5d5" d="M 123.5,355.5 C 173.463,383.761 227.13,396.094 284.5,392.5C 279.195,393.194 273.862,393.528 268.5,393.5C 262.833,393.5 257.167,393.5 251.5,393.5C 239.146,392.747 226.813,391.747 214.5,390.5C 208.634,389.082 202.634,387.748 196.5,386.5C 180.321,382.773 164.654,377.44 149.5,370.5C 140.144,366.495 131.477,361.495 123.5,355.5 Z"/></g>
<g><path style="opacity:0.631" fill="#908c8e" d="M 122.5,352.5 C 190.162,391.916 261.829,400.749 337.5,379C 347.597,375.248 357.597,371.415 367.5,367.5C 358.858,372.983 349.525,377.15 339.5,380C 321.83,385.251 303.83,388.917 285.5,391C 287.473,391.495 289.473,391.662 291.5,391.5C 289.735,392.461 287.735,392.795 285.5,392.5C 285.167,392.5 284.833,392.5 284.5,392.5C 227.13,396.094 173.463,383.761 123.5,355.5C 123.047,354.542 122.381,353.708 121.5,353C 121.728,352.601 122.062,352.435 122.5,352.5 Z"/></g>
<g><path style="opacity:1" fill="#cecdcf" d="M 381.5,361.5 C 381.047,362.458 380.381,363.292 379.5,364C 373.963,366.765 368.63,369.598 363.5,372.5C 340.523,382.578 316.523,388.911 291.5,391.5C 289.473,391.662 287.473,391.495 285.5,391C 303.83,388.917 321.83,385.251 339.5,380C 349.525,377.15 358.858,372.983 367.5,367.5C 372.372,365.957 377.038,363.957 381.5,361.5 Z"/></g>
<g><path style="opacity:1" fill="#585455" d="M 359.5,379.5 C 359.5,380.167 359.5,380.833 359.5,381.5C 352.44,384.686 345.107,387.353 337.5,389.5C 337.53,388.503 337.03,387.836 336,387.5C 319.86,391.775 303.527,394.775 287,396.5C 281.857,395.797 276.691,395.297 271.5,395C 270.263,394.768 269.263,394.268 268.5,393.5C 273.862,393.528 279.195,393.194 284.5,392.5C 284.833,392.5 285.167,392.5 285.5,392.5C 308.125,392.309 330.125,387.976 351.5,379.5C 351.833,380.167 352.167,380.833 352.5,381.5C 354.618,380.054 356.951,379.387 359.5,379.5 Z"/></g>
<g><path style="opacity:1" fill="#979594" d="M 214.5,390.5 C 226.813,391.747 239.146,392.747 251.5,393.5C 250.653,394.966 249.32,395.8 247.5,396C 251.29,396.23 254.624,397.563 257.5,400C 260.695,400.181 263.695,400.681 266.5,401.5C 253.829,401.667 241.162,401.5 228.5,401C 225.635,400.817 222.969,400.317 220.5,399.5C 221.675,399.719 222.675,399.386 223.5,398.5C 220.494,396.61 217.661,394.61 215,392.5C 214.612,393.428 213.945,394.095 213,394.5C 208.197,391.646 208.697,390.312 214.5,390.5 Z"/></g>
<g><path style="opacity:1" fill="#a5a3a2" d="M 196.5,386.5 C 202.634,387.748 208.634,389.082 214.5,390.5C 208.697,390.312 208.197,391.646 213,394.5C 213.945,394.095 214.612,393.428 215,392.5C 217.661,394.61 220.494,396.61 223.5,398.5C 222.675,399.386 221.675,399.719 220.5,399.5C 213.386,399.036 206.386,398.036 199.5,396.5C 199.804,395.85 200.137,395.183 200.5,394.5C 198.65,393.758 197.984,392.758 198.5,391.5C 195.833,392.833 193.167,392.833 190.5,391.5C 189.377,392.544 188.044,393.21 186.5,393.5C 182.877,392.395 179.21,391.395 175.5,390.5C 177.766,389.686 180.1,389.186 182.5,389C 183.126,388.25 183.626,387.416 184,386.5C 185.604,387.649 187.27,387.649 189,386.5C 191.603,389.112 194.103,389.112 196.5,386.5 Z"/></g>
<g><path style="opacity:0.02" fill="#322d2e" d="M 331.5,391.5 C 318.209,395.666 304.543,398.666 290.5,400.5C 291.6,399.442 292.934,398.608 294.5,398C 292.405,397.444 292.238,396.944 294,396.5C 297.121,397.536 300.287,397.703 303.5,397C 312.714,394.631 322.047,392.797 331.5,391.5 Z"/></g>
<g><path style="opacity:1" fill="#6e6b6b" d="M 337.5,389.5 C 335.698,390.458 333.698,391.125 331.5,391.5C 322.047,392.797 312.714,394.631 303.5,397C 300.287,397.703 297.121,397.536 294,396.5C 292.238,396.944 292.405,397.444 294.5,398C 292.934,398.608 291.6,399.442 290.5,400.5C 289.167,400.5 287.833,400.5 286.5,400.5C 279.841,400.954 273.174,401.287 266.5,401.5C 263.695,400.681 260.695,400.181 257.5,400C 254.624,397.563 251.29,396.23 247.5,396C 249.32,395.8 250.653,394.966 251.5,393.5C 257.167,393.5 262.833,393.5 268.5,393.5C 269.263,394.268 270.263,394.768 271.5,395C 276.691,395.297 281.857,395.797 287,396.5C 303.527,394.775 319.86,391.775 336,387.5C 337.03,387.836 337.53,388.503 337.5,389.5 Z"/></g>
<g><path style="opacity:0.558" fill="#3d3837" d="M 195.5,396.5 C 196.833,396.5 198.167,396.5 199.5,396.5C 206.386,398.036 213.386,399.036 220.5,399.5C 222.969,400.317 225.635,400.817 228.5,401C 241.162,401.5 253.829,401.667 266.5,401.5C 273.174,401.287 279.841,400.954 286.5,400.5C 275.564,402.334 264.397,403.334 253,403.5C 243.165,403.035 233.332,402.535 223.5,402C 213.842,401.101 204.509,399.268 195.5,396.5 Z"/></g>
</svg>
